# xmcd CD database file
#
# Track frame offsets:
#	150
#	33174
#	35851
#	61554
#	72238
#	124186
#	128529
#	145320
#	150336
#	165853
#	174483
#	242189
#
# Disc length: 3244 seconds
#
# Revision: 0
# Processed by: cddbd v1.5.2PL0 Copyright (c) Steve Scherf et al.
# Submitted via: CDex 1.70beta2
#
DISCID=950caa0c
DTITLE=Jochen Busse and Henning Venske - Inventur - CD1 (2010)
DYEAR=2010
DGENRE=Kabarett
TTITLE0=Vom Warten in den dafür vorgesehenen Zimmern
TTITLE1=Rondo alla turca (W. A. Mozart)
TTITLE2=Über Melkkühe
TTITLE3=Liberfrank
TTITLE4=Von der Pflicht, Organe zu spenden
TTITLE5=Valse Op. 69, No. 2 (Frédéric Chopin)
TTITLE6=Vom Marketing in der Politik
TTITLE7=Clara's Song
TTITLE8=Über die heimlichen Gedanken der Politiker
TTITLE9=Rendevouz (Adolf Götz)
TTITLE10=Über die Demokratie und von der Freiheit
TTITLE11=Hemming Marsch
EXTD=YEAR: 2010
EXTT0=
EXTT1=
EXTT2=
EXTT3=
EXTT4=
EXTT5=
EXTT6=
EXTT7=
EXTT8=
EXTT9=
EXTT10=
EXTT11=
PLAYORDER=
